<svg xmlns="http://www.w3.org/2000/svg" version="1.1" xmlns:xlink="http://www.w3.org/1999/xlink" width="512" height="512"><svg id="SvgjsSvg1185" xmlns="http://www.w3.org/2000/svg" version="1.1" viewBox="0 0 512 512">
  <!-- Generator: Adobe Illustrator 29.8.2, SVG Export Plug-In . SVG Version: 2.1.1 Build 3)  -->
  <defs>
    <style>
      .st0 {
        fill: #e72c21;
      }
    </style>
  </defs>
  <g id="SvgjsG1184">
    <path class="st0" d="M305.07,19.16c-20.6,6.52-32.02,28.5-25.51,49.1,1.05,3.31,2.53,6.48,4.41,9.39,18.94,29.39,10.46,68.57-18.93,87.51-3.12,2.01-6.41,3.74-9.84,5.18-27.59,11.56-40.6,43.3-29.04,70.89,3.07,7.32,7.69,13.87,13.56,19.2-42.24-30.27-52.65-88.71-23.46-131.71-.54-.47-1.05-.96-1.55-1.47-29.86,43.65-19.67,103.11,23.01,134.34-64.82-26.23-96.11-100.04-69.88-164.86,22.12-54.65,79.01-86.81,137.22-77.57"></path>
  </g>
  <g id="SvgjsG1183">
    <g id="SvgjsG1182">
      <path class="st0" d="M495.7,246.34c-12.57-17.58-37-21.65-54.58-9.08-2.83,2.02-5.37,4.41-7.57,7.1-22.1,27.09-61.98,31.14-89.07,9.04-2.88-2.35-5.54-4.94-7.96-7.76-19.52-22.67-53.72-25.23-76.39-5.71-6.01,5.18-10.81,11.6-14.06,18.83,15.75-49.53,68.09-77.48,118.01-63.01.28-.65.58-1.3.92-1.93-50.74-14.9-104.15,13.16-120.65,63.4,4.91-69.75,65.44-122.32,135.2-117.41,58.8,4.14,106.96,48.3,116.17,106.52"></path>
    </g>
    <g id="SvgjsG1181">
      <path class="st0" d="M50.8,426.1c20.5,6.83,42.66-4.23,49.49-24.74,1.1-3.29,1.76-6.73,1.95-10.19,1.95-34.91,31.84-61.63,66.75-59.67,3.7.2,7.39.74,11,1.59,29.12,6.87,58.29-11.17,65.16-40.28,1.82-7.72,1.93-15.74.3-23.5,16.38,49.32-9.55,102.71-58.43,120.34.16.69.29,1.4.38,2.1,49.81-17.77,76.52-71.86,60.34-122.21,37.03,59.32,18.96,137.42-40.36,174.45-50,31.21-114.92,23.79-156.6-17.9"></path>
    </g>
  </g>
  <g id="SvgjsG1180">
    <g id="SvgjsG1179">
      <path class="st0" d="M338.55,497.84c12.84-17.38,9.16-41.88-8.23-54.72-2.8-2.07-5.85-3.74-9.09-5-32.6-12.65-48.78-49.32-36.13-81.92,1.34-3.46,2.98-6.8,4.91-9.97,15.53-25.57,7.39-58.89-18.17-74.42-6.78-4.11-14.37-6.7-22.25-7.55,51.97-.34,94.73,40.82,96.4,92.76.71.06,1.41.16,2.12.28-1.5-52.86-44.7-94.98-97.58-95.16,67.86-16.88,136.56,24.44,153.44,92.29,14.23,57.2-12.88,116.65-65.41,143.4"></path>
    </g>
    <g id="SvgjsG1178">
      <path class="st0" d="M30.11,130.25c-.17,21.61,17.21,39.26,38.82,39.43,3.47.02,6.94-.41,10.3-1.3,33.81-8.93,68.45,11.23,77.38,45.04.95,3.59,1.58,7.26,1.89,10.96,2.46,29.82,28.63,51.99,58.45,49.53,7.91-.65,15.57-3.03,22.44-6.97-41.85,30.81-100.63,22.66-132.51-18.39-.61.37-1.23.71-1.88,1.02,32.29,41.88,91.99,50.57,134.87,19.63-44.97,53.55-124.84,60.5-178.39,15.52C16.34,246.81,3.34,182.77,30.11,130.25"></path>
    </g>
  </g>
  <path id="SvgjsPath1177" class="st0" d="M170.53-70.91c.2.16.52.21.92.15"></path>
  <path id="SvgjsPath1176" class="st0" d="M301.94-73.73"></path>
</svg><style>@media (prefers-color-scheme: light) { :root { filter: none; } }
@media (prefers-color-scheme: dark) { :root { filter: none; } }
</style></svg>